<?xml version="1.0" encoding="utf-8"?>
<!-- Generator: Adobe Illustrator 19.2.1, SVG Export Plug-In . SVG Version: 6.00 Build 0)  -->
<svg version="1.1" baseProfile="basic" xmlns="http://www.w3.org/2000/svg" xmlns:xlink="http://www.w3.org/1999/xlink" x="0px"
	 y="0px" width="800px" height="800px" viewBox="0 0 800 800" xml:space="preserve">
<style type="text/css">
	.st0{fill:#EB1C24;}
	.st1{fill:#DC2F39;}
	.st2{fill:#CD414D;}
	.st3{fill:#BE5462;}
	.st4{fill:#AF6677;}
	.st5{fill:#A0798C;}
	.st6{fill:#918BA0;}
	.st7{fill:#829EB5;}
	.st8{display:none;}
	.st9{display:inline;}
</style>
<g id="Layer_1">
	<g>
		<path class="st4" d="M400.4,649c-23.7,0-33.3-23.8-43.5-49c-9.1-22.6-18.6-46.1-38.6-57.6c-20.1-11.6-45.1-8.1-69.2-4.6
			c-26.9,3.8-52.3,7.4-64.1-13.2c-11.9-20.5,3.9-40.7,20.7-62.1c15-19.2,30.6-39.1,30.6-62.3c0-23.2-15.6-43-30.6-62.3
			c-16.7-21.4-32.5-41.6-20.7-62.1c11.9-20.5,37.3-17,64.1-13.2c24.2,3.4,49.2,6.9,69.2-4.6c19.9-11.5,29.8-36.7,38.5-58.9
			c10.3-26.1,20-50.8,43.9-47.6c23,3,32.5,25.8,42.6,49.9c9.2,22.1,18.8,44.9,39.2,56.7c20.1,11.6,45.1,8.1,69.2,4.6
			c26.9-3.8,52.3-7.4,64.1,13.2c11.9,20.5-3.9,40.7-20.7,62.1c-15,19.2-30.6,39.1-30.6,62.3c0,23.2,15.6,43,30.6,62.3
			c16.7,21.4,32.5,41.6,20.7,62.1c-11.9,20.5-37.2,17-64.1,13.2c-24.2-3.4-49.2-6.9-69.2,4.6c-20.1,11.6-29.5,35-38.6,57.6
			C433.7,625.2,424.1,649,400.4,649z M283.7,529.1c13.1,0,25.9,2.1,37.3,8.6c21.7,12.5,31.9,37.9,40.9,60.3
			c9.9,24.5,18.4,45.6,38.5,45.6s28.6-21.1,38.5-45.6c9-22.4,19.3-47.8,40.9-60.3c21.7-12.5,48.8-8.7,72.7-5.3
			c26.1,3.7,48.7,6.9,58.7-10.5c10.1-17.4-4-35.4-20.2-56.1c-14.9-19-31.7-40.6-31.7-65.6c0-25,16.9-46.6,31.7-65.6
			c16.3-20.8,30.3-38.7,20.2-56.1c-10-17.4-32.6-14.2-58.7-10.5c-23.9,3.4-51,7.2-72.7-5.3c-21.9-12.7-32.3-37.4-41.4-59.2
			c-9.9-23.6-18.4-44-38.3-46.7c-19.8-2.6-28.4,19.1-38.2,44.3c-9.1,23.1-19.3,49.2-40.8,61.6c-21.7,12.5-48.8,8.7-72.7,5.3
			c-26.1-3.7-48.7-6.9-58.7,10.5l0,0c-10.1,17.4,4,35.4,20.2,56.1c14.9,19,31.7,40.6,31.7,65.6c0,25-16.9,46.6-31.7,65.6
			c-16.3,20.8-30.3,38.7-20.2,56.1c10.1,17.4,32.6,14.2,58.7,10.5C259.7,530.8,271.8,529.1,283.7,529.1z"/>
	</g>
</g>
<g id="Export_Symbol_Settings" class="st8">
</g>
</svg>
