<?xml version="1.0" encoding="utf-8"?>
<!-- Generator: Adobe Illustrator 19.2.1, SVG Export Plug-In . SVG Version: 6.00 Build 0)  -->
<svg version="1.1" baseProfile="basic" xmlns="http://www.w3.org/2000/svg" xmlns:xlink="http://www.w3.org/1999/xlink" x="0px"
	 y="0px" width="800px" height="800px" viewBox="0 0 800 800" xml:space="preserve">
<style type="text/css">
	.st0{fill:#EB1C24;}
	.st1{fill:#DC2F39;}
	.st2{fill:#CD414D;}
	.st3{fill:#BE5462;}
	.st4{fill:#AF6677;}
	.st5{fill:#A0798C;}
	.st6{fill:#918BA0;}
	.st7{fill:#829EB5;}
	.st8{display:none;}
</style>
<g id="Layer_1">
	<g>
		<path class="st1" d="M400.4,539.9c-11.6,0-15.9-17.7-20.5-36.4c-3.9-15.8-8.2-33.8-16.8-38.7c-8.6-4.9-26.3,0.2-41.9,4.8
			c-18.5,5.4-36,10.5-41.8,0.5c-5.8-10,7.4-22.6,21.3-36c11.8-11.2,25.1-24,25.1-33.9c0-9.9-13.3-22.6-25.1-33.9
			c-13.9-13.3-27.1-25.9-21.3-36l0,0c5.8-10,23.3-4.9,41.8,0.5c15.6,4.6,33.3,9.8,41.9,4.8c8.5-4.9,12.9-23.2,16.8-39.3
			c4.6-19.2,8.9-37.4,20.8-35.8c11.1,1.5,15.4,18.6,19.9,36.8c3.9,15.6,8.3,33.3,17,38.3c8.6,4.9,26.3-0.2,41.9-4.8
			c18.5-5.4,36-10.5,41.8-0.5c5.8,10-7.4,22.6-21.3,36c-11.8,11.2-25.1,24-25.1,33.9c0,9.9,13.3,22.6,25.1,33.9
			c14,13.3,27.1,25.9,21.3,36c-5.8,10-23.3,4.9-41.8-0.5c-15.6-4.6-33.3-9.8-41.9-4.8c-8.6,4.9-12.9,22.9-16.8,38.7
			C416.3,522.2,411.9,539.9,400.4,539.9z M353.6,457.4c4.6,0,8.8,0.8,12.1,2.7c10.5,6.1,15,24.4,19.3,42.1
			c3.9,15.9,7.9,32.4,15.3,32.4c7.4,0,11.4-16.4,15.3-32.4c4.3-17.7,8.8-36,19.3-42.1c10.6-6.1,28.6-0.8,46.1,4.3
			c15.7,4.6,32,9.3,35.6,3c3.7-6.4-8.6-18.1-20.4-29.4c-13.2-12.6-26.8-25.6-26.8-37.8c0-12.2,13.6-25.2,26.8-37.8
			c11.8-11.3,24.1-23,20.4-29.4c-3.7-6.4-19.9-1.6-35.6,3c-17.5,5.1-35.5,10.4-46.1,4.3c-10.6-6.1-15.1-24.2-19.5-41.7
			c-3.9-15.6-7.9-31.8-15.4-32.8c-7-1-11.1,15.7-14.9,31.8c-4.3,18-8.8,36.6-19.3,42.7c-10.6,6.1-28.6,0.8-46.1-4.3
			c-15.7-4.6-32-9.4-35.6-3c-3.7,6.4,8.6,18.1,20.4,29.4c13.2,12.6,26.8,25.6,26.8,37.8c0,12.2-13.6,25.2-26.8,37.8
			c-11.8,11.3-24.1,23-20.4,29.4c3.7,6.4,19.9,1.6,35.6-3C331.6,460.9,343.7,457.4,353.6,457.4z"/>
	</g>
</g>
<g id="Export_Symbol_Settings" class="st8">
</g>
</svg>
