<?xml version="1.0" encoding="utf-8"?>
<!-- Generator: Adobe Illustrator 19.2.1, SVG Export Plug-In . SVG Version: 6.00 Build 0)  -->
<svg version="1.1" baseProfile="basic" xmlns="http://www.w3.org/2000/svg" xmlns:xlink="http://www.w3.org/1999/xlink" x="0px"
	 y="0px" width="800px" height="800px" viewBox="0 0 800 800" xml:space="preserve">
<style type="text/css">
	.st0{fill:#EB1C24;}
	.st1{fill:#DC2F39;}
	.st2{fill:#CD414D;}
	.st3{fill:#BE5462;}
	.st4{fill:#AF6677;}
	.st5{fill:#A0798C;}
	.st6{fill:#918BA0;}
	.st7{fill:#829EB5;}
	.st8{display:none;}
	.st9{display:inline;}
	.st10{font-family:'MyriadPro-Regular';}
	.st11{font-size:12px;}
</style>
<g id="Layer_1">
	<g>
		<path class="st0" d="M400.4,503.5l-0.2,0c-7.6-0.5-9.9-14.6-12.8-32.5c-2.1-13.1-4.8-29.5-9.4-32.1c-4.6-2.6-20.1,3.2-32.5,8
			c-16.9,6.4-30.3,11.5-34.6,5.2l-0.2-0.3c-3.4-6.8,7.7-15.9,21.8-27.3c10.3-8.4,23.1-18.9,23.1-24.2c0-5.3-12.8-15.8-23.1-24.2
			c-14-11.5-25.1-20.5-21.8-27.3l0.2-0.3c4.2-6.3,17.6-1.2,34.6,5.2c12.4,4.7,27.9,10.6,32.5,8c4.6-2.6,7.2-19,9.4-32.1
			c2.9-17.9,5.2-32,12.8-32.5l0.2,0l0.2,0c7.6,0.5,9.9,14.6,12.8,32.5c2.1,13.1,4.8,29.5,9.4,32.1c4.6,2.6,20.1-3.2,32.5-8
			c16.9-6.4,30.3-11.5,34.6-5.2l0.2,0.3c3.4,6.8-7.7,15.9-21.8,27.3c-10.3,8.4-23.1,18.9-23.1,24.2c0,5.3,12.8,15.8,23.1,24.2
			c14,11.5,25.1,20.5,21.8,27.3l-0.2,0.3c-4.2,6.3-17.6,1.2-34.6-5.2c-12.4-4.7-27.9-10.6-32.5-8c-4.6,2.6-7.2,19-9.4,32.1
			c-2.9,17.9-5.2,32-12.8,32.5L400.4,503.5z M374.8,432.9c2.3,0,4.3,0.4,5.9,1.3c6.8,3.9,9.3,19.5,12,35.9c1.6,9.5,4.4,27.2,7.7,28
			c3.2-0.8,6.1-18.5,7.7-28c2.7-16.5,5.2-32,12-35.9c6.8-3.9,21.5,1.7,37.1,7.6c9,3.4,25.7,9.8,28.1,7.4
			c0.9-3.2-12.9-14.5-20.4-20.6c-12.9-10.5-25.1-20.5-25.1-28.3c0-7.8,12.2-17.8,25.1-28.3c7.5-6.1,21.3-17.4,20.4-20.6
			c-2.3-2.4-19,3.9-28.1,7.4c-15.6,5.9-30.3,11.5-37.1,7.6c-6.8-3.9-9.3-19.5-12-35.9c-1.6-9.5-4.4-27.2-7.7-28
			c-3.2,0.8-6.1,18.5-7.7,28c-2.7,16.5-5.2,32-12,35.9c-6.8,3.9-21.5-1.7-37.1-7.6c-9-3.4-25.7-9.8-28.1-7.4
			c-0.9,3.2,12.9,14.5,20.4,20.6c12.9,10.5,25.1,20.5,25.1,28.3c0,7.8-12.2,17.8-25.1,28.3c-7.5,6.1-21.3,17.4-20.4,20.6
			c2.3,2.4,19-3.9,28.1-7.4C355.6,437.2,367.1,432.9,374.8,432.9z"/>
	</g>
</g>
<g id="Export_Symbol_Settings" class="st8">
	<text class="st9"><tspan x="0" y="0" class="st10 st11">&lt;prefs&gt;</tspan><tspan x="0" y="14.4" class="st10 st11">  &lt;directory/&gt;</tspan><tspan x="0" y="28.8" class="st10 st11">  &lt;exportArtboards&gt;false&lt;/exportArtboards&gt;</tspan><tspan x="0" y="43.2" class="st10 st11">  &lt;ignoreWarnings&gt;false&lt;/ignoreWarnings&gt;</tspan><tspan x="0" y="57.6" class="st10 st11">  &lt;ignoreOutOfBounds&gt;true&lt;/ignoreOutOfBounds&gt;</tspan><tspan x="0" y="72" class="st10 st11">  &lt;formats/&gt;</tspan><tspan x="0" y="86.4" class="st10 st11">  &lt;artboardAll&gt;true&lt;/artboardAll&gt;</tspan><tspan x="0" y="100.8" class="st10 st11">  &lt;layerAll&gt;true&lt;/layerAll&gt;</tspan><tspan x="0" y="115.2" class="st10 st11">  &lt;symbolAll&gt;true&lt;/symbolAll&gt;</tspan><tspan x="0" y="129.6" class="st10 st11">&lt;/prefs&gt;</tspan></text>
</g>
</svg>
