<?xml version="1.0" encoding="utf-8"?>
<!-- Generator: Adobe Illustrator 19.2.1, SVG Export Plug-In . SVG Version: 6.00 Build 0)  -->
<svg version="1.1" baseProfile="basic" xmlns="http://www.w3.org/2000/svg" xmlns:xlink="http://www.w3.org/1999/xlink" x="0px"
	 y="0px" width="800px" height="800px" viewBox="0 0 800 800" xml:space="preserve">
<style type="text/css">
	.st0{fill:#EB1C24;}
	.st1{fill:#DC2F39;}
	.st2{fill:#CD414D;}
	.st3{fill:#BE5462;}
	.st4{fill:#AF6677;}
	.st5{fill:#A0798C;}
	.st6{fill:#918BA0;}
	.st7{fill:#829EB5;}
	.st8{display:none;}
	.st9{display:inline;}
</style>
<g id="Layer_1">
	<g>
		<path class="st5" d="M400.4,685.4c-27.9,0-39.2-25.8-51.3-53.2c-10.3-23.5-22-50.1-45.8-63.9c-23.8-13.7-52.7-10.5-78.2-7.7
			c-29.7,3.3-57.8,6.4-71.7-17.8c-13.9-24.2,2.8-46.9,20.5-71c15.2-20.7,32.4-44.1,32.4-71.6c0-27.5-17.2-50.9-32.4-71.6
			c-17.7-24.1-34.4-46.8-20.5-71l0,0c13.9-24.2,42-21.1,71.7-17.8c25.5,2.8,54.4,6,78.2-7.7c23.5-13.6,35.3-41.1,45.6-65.4
			c12.1-28.5,23.6-55.4,51.8-51.7c27,3.6,38.3,28.3,50.2,54.4c10.9,24,22.3,48.7,46.4,62.7c23.8,13.7,52.7,10.5,78.2,7.7
			c29.7-3.3,57.8-6.4,71.7,17.8s-2.8,46.9-20.5,71c-15.2,20.7-32.4,44.1-32.4,71.6c0,27.5,17.2,50.9,32.4,71.6
			c17.7,24.1,34.4,46.8,20.5,71c-13.9,24.2-42,21.1-71.7,17.8c-25.5-2.8-54.4-6-78.2,7.7c-23.8,13.7-35.5,40.4-45.8,63.9
			C439.6,659.5,428.2,685.4,400.4,685.4z M259,552.7c16.1,0,32.3,2.5,47,10.9c25.3,14.6,37.4,42.1,48,66.4
			c11.8,26.8,21.9,50,46.3,50s34.6-23.2,46.3-50c10.6-24.3,22.7-51.7,48-66.4c25.3-14.6,55.1-11.3,81.5-8.4
			c29.1,3.2,54.3,6,66.5-15.1c12.2-21.1-2.8-41.5-20.1-65.1c-15.7-21.3-33.5-45.5-33.5-74.8c0-29.2,17.8-53.4,33.5-74.8
			c17.3-23.6,32.3-44,20.1-65.1c-12.2-21.1-37.4-18.3-66.5-15.1c-26.3,2.9-56.2,6.2-81.5-8.4c-25.7-14.8-37.9-41.5-48.6-65.1
			c-11.8-25.8-22-48.1-46.1-51.3c-24.1-3.2-34.3,20.7-46.1,48.5c-10.7,25.1-22.8,53.5-47.9,67.9c-25.3,14.6-55.2,11.3-81.5,8.4
			c-29.1-3.2-54.3-6-66.5,15.1l0,0c-12.2,21.1,2.8,41.5,20.1,65.1c15.7,21.3,33.5,45.5,33.5,74.8c0,29.2-17.8,53.4-33.5,74.8
			c-17.3,23.6-32.3,44-20.1,65.1c12.2,21.1,37.4,18.3,66.5,15.1C235.6,554,247.3,552.7,259,552.7z"/>
	</g>
</g>
<g id="Export_Symbol_Settings" class="st8">
</g>
</svg>
