<?xml version="1.0" encoding="utf-8"?>
<!-- Generator: Adobe Illustrator 19.2.1, SVG Export Plug-In . SVG Version: 6.00 Build 0)  -->
<svg version="1.1" baseProfile="basic" xmlns="http://www.w3.org/2000/svg" xmlns:xlink="http://www.w3.org/1999/xlink" x="0px"
	 y="0px" width="800px" height="800px" viewBox="0 0 800 800" xml:space="preserve">
<style type="text/css">
	.st0{fill:#EB1C24;}
	.st1{fill:#DC2F39;}
	.st2{fill:#CD414D;}
	.st3{fill:#BE5462;}
	.st4{fill:#AF6677;}
	.st5{fill:#A0798C;}
	.st6{fill:#918BA0;}
	.st7{fill:#829EB5;}
	.st8{display:none;}
</style>
<g id="Layer_1">
	<g>
		<path class="st7" d="M400.4,758.1l-0.2,0c-35.9-2.4-50.7-31.6-66.4-62.6c-13.6-26.9-29-57.3-60.4-75.4
			c-31.4-18.1-65.4-16.2-95.5-14.6c-34.7,1.9-67.4,3.7-87.4-26.2l-0.2-0.3c-15.9-32.3,2.1-59.7,21.1-88.8
			c16.5-25.2,35.1-53.7,35.1-90s-18.7-64.8-35.1-90c-19-29.1-37-56.6-21.1-88.8l0.2-0.3c20-29.9,52.8-28.1,87.4-26.2
			c30,1.7,64.1,3.5,95.5-14.6c31.4-18.1,46.8-48.5,60.4-75.4c15.7-31,30.5-60.3,66.4-62.6l0.2,0l0.2,0c35.9,2.4,50.7,31.6,66.4,62.6
			c13.6,26.9,29,57.3,60.4,75.4c31.4,18.1,65.4,16.2,95.5,14.6c34.7-1.9,67.4-3.7,87.4,26.2l0.2,0.3c15.9,32.3-2.1,59.7-21.1,88.8
			c-16.5,25.2-35.1,53.8-35.1,90s18.7,64.8,35.1,90c19,29.1,37,56.6,21.1,88.8l-0.2,0.3c-20,29.9-52.8,28.1-87.4,26.2
			c-30.1-1.7-64.1-3.5-95.5,14.6c-31.4,18.1-46.8,48.6-60.4,75.4c-15.7,31-30.5,60.3-66.4,62.6L400.4,758.1z M205.8,599.1
			c23,0,47.2,3,70.3,16.3c32.8,18.9,48.5,50.1,62.5,77.6c15.6,30.8,29.1,57.5,61.8,59.7c32.7-2.2,46.2-28.9,61.8-59.7
			c13.9-27.5,29.7-58.7,62.5-77.6c32.8-18.9,67.7-17,98.5-15.3c34.5,1.9,64.3,3.6,82.6-23.7c14.4-29.5-1.9-54.4-20.8-83.4
			c-16.9-25.8-36-55.1-36-92.9s19.1-67.1,36-92.9c18.9-28.9,35.2-53.9,20.8-83.4c-18.3-27.2-48.1-25.6-82.6-23.7
			c-30.8,1.7-65.7,3.6-98.5-15.3c-32.8-18.9-48.5-50.1-62.5-77.6c-15.6-30.8-29.1-57.5-61.8-59.7c-32.7,2.2-46.2,28.9-61.8,59.7
			c-13.9,27.5-29.7,58.7-62.5,77.6c-32.8,18.9-67.7,17-98.5,15.3c-34.5-1.9-64.3-3.6-82.6,23.7c-14.4,29.5,1.9,54.4,20.8,83.4
			c16.9,25.8,36,55.1,36,92.9s-19.1,67.1-36,92.9C97,522,80.6,547,95,576.5c18.3,27.2,48.1,25.6,82.6,23.7
			C186.7,599.6,196.2,599.1,205.8,599.1z"/>
	</g>
</g>
<g id="Export_Symbol_Settings" class="st8">
</g>
</svg>
