<?xml version="1.0" encoding="utf-8"?>
<!-- Generator: Adobe Illustrator 19.2.1, SVG Export Plug-In . SVG Version: 6.00 Build 0)  -->
<svg version="1.1" baseProfile="basic" xmlns="http://www.w3.org/2000/svg" xmlns:xlink="http://www.w3.org/1999/xlink" x="0px"
	 y="0px" width="800px" height="800px" viewBox="0 0 800 800" xml:space="preserve">
<style type="text/css">
	.st0{fill:#EB1C24;}
	.st1{fill:#DC2F39;}
	.st2{fill:#CD414D;}
	.st3{fill:#BE5462;}
	.st4{fill:#AF6677;}
	.st5{fill:#A0798C;}
	.st6{fill:#918BA0;}
	.st7{fill:#829EB5;}
	.st8{display:none;}
</style>
<g id="Layer_1">
	<g>
		<path class="st3" d="M400.4,612.6c-19.6,0-27.4-21.7-35.7-44.7c-7.4-20.6-15.1-42-31.4-51.4c-16.3-9.4-38.6-5.4-60.2-1.5
			c-24.1,4.3-46.8,8.4-56.6-8.6c-9.8-17,5.1-34.6,20.9-53.3c14.2-16.8,28.8-34.1,28.8-52.9c0-18.8-14.6-36.1-28.8-52.9
			c-15.8-18.7-30.7-36.3-20.9-53.3c9.8-17,32.5-12.9,56.6-8.6c21.6,3.9,43.9,7.9,60.2-1.5c16.1-9.3,24.2-32.2,31.3-52.4
			c8.4-23.8,16.3-46.3,36.2-43.7c19,2.5,26.7,23.4,35,45.5c7.5,20.2,15.3,41,31.8,50.6c16.3,9.4,38.6,5.4,60.2,1.5
			c24.1-4.3,46.8-8.4,56.6,8.6c9.8,17-5.1,34.6-20.9,53.3c-14.1,16.8-28.8,34.1-28.8,52.9c0,18.8,14.6,36.1,28.8,52.9
			c15.8,18.7,30.7,36.3,20.9,53.3c-9.8,17-32.5,12.9-56.6,8.6c-21.6-3.9-43.9-7.9-60.2,1.5c-16.3,9.4-24,30.7-31.4,51.4
			C427.8,590.9,420,612.6,400.4,612.6z M307.8,505.4c10.1,0,19.8,1.6,28.1,6.4c18,10.4,26.4,33.7,33.8,54.2
			c8,22.1,14.8,41.2,30.7,41.2c15.8,0,22.7-19.1,30.7-41.2c7.4-20.5,15.8-43.8,33.8-54.2c18-10.4,42.3-6,63.8-2.2
			c23.1,4.2,43.1,7.7,51-6c7.9-13.7-5.2-29.2-20.3-47.2c-14.1-16.7-30-35.6-30-56.4c0-20.8,16-39.7,30-56.4
			c15.2-18,28.3-33.5,20.3-47.2c-7.9-13.7-27.9-10.1-51-6c-21.5,3.9-45.8,8.2-63.8-2.2c-18.2-10.5-26.7-33.3-34.2-53.4
			c-8-21.4-14.9-40-30.7-42.1c-15.5-2.1-22.4,17.5-30.4,40.1c-7.4,21.1-15.8,45-33.7,55.3c-18,10.4-42.3,6-63.8,2.2
			c-23.1-4.2-43.1-7.7-51,6c-7.9,13.7,5.2,29.2,20.3,47.2c14.1,16.7,30,35.6,30,56.4c0,20.8-16,39.7-30,56.4
			c-15.2,18-28.3,33.5-20.3,47.2c7.9,13.7,27.9,10.1,51,6C283.6,507.6,296,505.4,307.8,505.4z"/>
	</g>
</g>
<g id="Export_Symbol_Settings" class="st8">
</g>
</svg>
