<?xml version="1.0" encoding="utf-8"?>
<!-- Generator: Adobe Illustrator 19.2.1, SVG Export Plug-In . SVG Version: 6.00 Build 0)  -->
<svg version="1.1" baseProfile="basic" xmlns="http://www.w3.org/2000/svg" xmlns:xlink="http://www.w3.org/1999/xlink" x="0px"
	 y="0px" width="800px" height="800px" viewBox="0 0 800 800" xml:space="preserve">
<style type="text/css">
	.st0{fill:#EB1C24;}
	.st1{fill:#DC2F39;}
	.st2{fill:#CD414D;}
	.st3{fill:#BE5462;}
	.st4{fill:#AF6677;}
	.st5{fill:#A0798C;}
	.st6{fill:#918BA0;}
	.st7{fill:#829EB5;}
	.st8{display:none;}
</style>
<g id="Layer_1">
	<g>
		<path class="st6" d="M400.4,721.7c-32.1,0-45.2-27.9-59.1-57.5c-11.9-25.4-25.4-54.2-52.9-70.1c-27.5-15.9-59.2-13.2-87.1-10.8
			c-32.6,2.8-63.3,5.4-79.3-22.4c-16-27.8,1.6-53.1,20.3-79.9c16-23,34.2-49.1,34.2-80.9s-18.2-57.8-34.2-80.9
			c-18.7-26.8-36.3-52.1-20.3-79.9l0,0c16-27.8,46.8-25.2,79.3-22.4c28,2.4,59.7,5.1,87.1-10.8c27.2-15.7,40.7-45.5,52.7-71.8
			c14-30.9,27.2-60,59.6-55.7c31.1,4.1,44.2,30.7,57.9,58.9c12.7,25.8,25.7,52.6,53.7,68.7c27.5,15.9,59.2,13.2,87.1,10.8
			c32.5-2.8,63.3-5.4,79.3,22.4c16,27.8-1.6,53.1-20.3,79.9c-16,23-34.2,49.1-34.2,80.9s18.2,57.8,34.2,80.9
			c18.7,26.8,36.3,52.1,20.3,79.9c-16,27.8-46.8,25.2-79.3,22.4c-28-2.4-59.7-5.1-87.1,10.8c-27.5,15.9-41,44.7-52.9,70.1
			C445.6,693.8,432.4,721.7,400.4,721.7z M233.7,576.2c19.3,0,39,2.8,57.3,13.3c28.9,16.7,42.8,46.3,55.1,72.4
			c13.7,29.2,25.5,54.4,54.2,54.4c28.7,0,40.5-25.2,54.2-54.4c12.3-26.1,26.2-55.7,55.1-72.4c28.9-16.7,61.5-13.9,90.3-11.5
			c32.1,2.7,59.9,5.1,74.2-19.8c14.3-24.8-1.6-47.7-20-74.2c-16.5-23.7-35.2-50.5-35.2-83.9s18.7-60.2,35.2-83.9
			c18.4-26.5,34.4-49.3,20-74.2c-14.3-24.8-42.1-22.5-74.2-19.8c-28.8,2.4-61.3,5.2-90.3-11.5c-29.4-16.9-43.4-45.6-55.8-71
			c-13.7-28-25.6-52.1-53.8-55.9c-28.4-3.8-39.7,21.1-54.1,52.6c-12.3,27.1-26.2,57.7-54.9,74.3c-28.9,16.7-61.5,13.9-90.3,11.5
			c-32.1-2.7-59.9-5.1-74.2,19.8c-14.3,24.8,1.6,47.7,20,74.2c16.5,23.7,35.2,50.5,35.2,83.9s-18.7,60.2-35.2,83.9
			c-18.4,26.5-34.4,49.3-20,74.2c14.3,24.8,42.1,22.5,74.2,19.8C211.4,577.1,222.5,576.2,233.7,576.2z"/>
	</g>
</g>
<g id="Export_Symbol_Settings" class="st8">
</g>
</svg>
