<?xml version="1.0" encoding="utf-8"?>
<!-- Generator: Adobe Illustrator 19.2.1, SVG Export Plug-In . SVG Version: 6.00 Build 0)  -->
<svg version="1.1" baseProfile="basic" xmlns="http://www.w3.org/2000/svg" xmlns:xlink="http://www.w3.org/1999/xlink" x="0px"
	 y="0px" width="800px" height="800px" viewBox="0 0 800 800" xml:space="preserve">
<style type="text/css">
	.st0{fill:#EB1C24;}
	.st1{fill:#DC2F39;}
	.st2{fill:#CD414D;}
	.st3{fill:#BE5462;}
	.st4{fill:#AF6677;}
	.st5{fill:#A0798C;}
	.st6{fill:#918BA0;}
	.st7{fill:#829EB5;}
	.st8{display:none;}
</style>
<g id="Layer_1">
	<g>
		<path class="st2" d="M400.4,576.2c-15.6,0-21.6-19.7-28.1-40.6c-5.7-18.6-11.7-37.9-24.1-45.1c-12.5-7.2-32.1-2.7-51.1,1.6
			c-21.3,4.9-41.4,9.5-49.2-4c-7.8-13.5,6.2-28.6,21.1-44.6c13.3-14.3,27-29,27-43.4c0-14.4-13.7-29.2-27-43.4
			c-14.9-16-28.9-31.1-21.1-44.6l0,0c7.8-13.5,27.9-8.9,49.2-4c19,4.3,38.6,8.8,51.1,1.6c12.4-7.1,18.6-27.7,24.1-45.9
			c6.5-21.5,12.6-41.8,28.5-39.7c15,2,21,21,27.4,41.1c5.8,18.3,11.8,37.2,24.4,44.5c12.5,7.2,32.1,2.7,51.1-1.6
			c21.3-4.9,41.4-9.5,49.2,4c7.8,13.5-6.2,28.6-21.1,44.6c-13.3,14.3-27,29-27,43.4c0,14.4,13.7,29.2,27,43.4
			c14.9,16,28.9,31.1,21.1,44.6c-7.8,13.5-27.9,8.9-49.2,4c-19-4.3-38.6-8.8-51.1-1.6c-12.5,7.2-18.4,26.4-24.1,45.1
			C422,556.5,415.9,576.2,400.4,576.2z M331.2,481.5c7.3,0,14,1.2,19.7,4.5c14.3,8.2,20.5,28.5,26.6,48.1
			c5.8,18.9,11.3,36.8,22.9,36.8c11.6,0,17.1-17.9,22.9-36.8c6-19.6,12.3-39.9,26.6-48.1c14.3-8.3,35-3.5,55,1
			c19.3,4.4,37.5,8.6,43.3-1.5c5.8-10-6.9-23.7-20.4-38.3c-14-15-28.4-30.6-28.4-47.1c0-16.5,14.4-32,28.4-47.1
			c13.5-14.5,26.2-28.2,20.4-38.3c-5.8-10-24-5.9-43.3-1.5c-20,4.6-40.7,9.3-55,1c-14.4-8.3-20.8-28.2-26.9-47.5
			c-5.9-18.5-11.4-35.9-23-37.4c-11.3-1.5-16.8,16.7-22.6,35.9c-6.1,20.1-12.3,40.8-26.5,49c-14.3,8.2-35,3.5-55-1
			c-19.3-4.4-37.5-8.6-43.3,1.5l0,0c-5.8,10,6.9,23.7,20.4,38.3c14,15,28.4,30.6,28.4,47.1c0,16.5-14.4,32-28.4,47.1
			c-13.5,14.5-26.2,28.2-20.4,38.3c5.8,10,24,5.9,43.3,1.5C307.9,484.3,320.2,481.5,331.2,481.5z"/>
	</g>
</g>
<g id="Export_Symbol_Settings" class="st8">
</g>
</svg>
