<?xml version="1.0" encoding="utf-8"?>
<!-- Generator: Adobe Illustrator 15.1.0, SVG Export Plug-In . SVG Version: 6.00 Build 0)  -->
<!DOCTYPE svg PUBLIC "-//W3C//DTD SVG 1.1//EN" "http://www.w3.org/Graphics/SVG/1.1/DTD/svg11.dtd">
<svg version="1.1" id="New_Symbol" xmlns="http://www.w3.org/2000/svg" xmlns:xlink="http://www.w3.org/1999/xlink" x="0px" y="0px"
	 width="7.062px" height="7.062px" viewBox="-8.222 -8.781 7.062 7.062" enable-background="new -8.222 -8.781 7.062 7.062"
	 xml:space="preserve">
<path d="M-1.16-7.312c0-0.434-0.087-0.848-0.244-1.226c-0.377-0.157-0.791-0.244-1.225-0.244c-0.786,0-1.506,0.285-2.062,0.756
	c-0.556-0.472-1.276-0.756-2.062-0.756c-0.434,0-0.848,0.087-1.225,0.244C-8.135-8.16-8.222-7.746-8.222-7.312
	c0,0.786,0.285,1.506,0.756,2.062c-0.472,0.556-0.756,1.276-0.756,2.062c0,0.435,0.087,0.849,0.244,1.226
	c0.377,0.157,0.791,0.243,1.225,0.243c0.786,0,1.506-0.284,2.062-0.756c0.556,0.472,1.276,0.756,2.062,0.756
	c0.434,0,0.848-0.086,1.225-0.243C-1.247-2.339-1.16-2.753-1.16-3.188c0-0.786-0.285-1.506-0.756-2.062
	C-1.445-5.806-1.16-6.525-1.16-7.312z M-2.259-3.188c0,0.117-0.009,0.231-0.027,0.343c-0.111,0.019-0.227,0.028-0.343,0.028
	c-1.035,0-1.895-0.752-2.062-1.738c-0.168,0.986-1.027,1.738-2.062,1.738c-0.117,0-0.231-0.01-0.343-0.028
	C-7.115-2.956-7.125-3.07-7.125-3.188c0-1.035,0.752-1.894,1.739-2.062c-0.987-0.168-1.739-1.027-1.739-2.062
	c0-0.117,0.01-0.232,0.028-0.343c0.111-0.019,0.226-0.028,0.343-0.028c1.035,0,1.895,0.751,2.062,1.738
	c0.168-0.987,1.027-1.738,2.062-1.738c0.116,0,0.231,0.009,0.343,0.028c0.019,0.111,0.027,0.226,0.027,0.343
	c0,1.035-0.751,1.894-1.738,2.062C-3.01-5.082-2.259-4.223-2.259-3.188z"/>
</svg>
