<?xml version="1.0" encoding="utf-8"?>
<!-- Generator: Adobe Illustrator 19.2.1, SVG Export Plug-In . SVG Version: 6.00 Build 0)  -->
<svg version="1.1" baseProfile="basic" id="New_Symbol"
	 xmlns="http://www.w3.org/2000/svg" xmlns:xlink="http://www.w3.org/1999/xlink" x="0px" y="0px" viewBox="0 0 179 290.7"
	 xml:space="preserve">
<style type="text/css">
	.st0{fill:#FFFFFF;}
</style>
<g id="DGWD6p.tif">
	<g>
		<path class="st0" d="M83.8,156c0,8.5-5.7,15.8-11.2,22.3c-6.2,7.4-12.8,13.5-22.6,13.5c-18.3,0-38.9-17.6-38.9-35.9
			s18.1-34.3,36.3-34.3S83.8,137.7,83.8,156z"/>
		<path class="st0" d="M91.8,152.6c0,8.5,5.7,15.8,11.2,22.3c6.2,7.4,15,12.5,24.8,12.5c18.3,0,36.7-16.6,36.7-34.9
			s-18.1-34.3-36.3-34.3S91.8,134.3,91.8,152.6z"/>
		<path d="M19.3,211.6c-0.4,0.8-0.7,1.1-0.9,1.6c-2.6-0.2-4.9-1.4-7.1-2.8c-3.6-2.3-6-5.6-7.8-9.4c-2.1-4.5-3-9.3-2.1-14.2
			c0.9-5.2,4-8.3,9.1-9.5c1.6-0.4,1.6-0.5,1.1-2.1c-1.1-4-2.4-7.9-3.2-12c-1.5-8-1.2-15.8,2.7-23.1c0.6-1,0.2-1.9-0.5-2.7
			c-2.6-3.1-4.4-6.7-5.2-10.8c-0.7-4.2,0.1-8.1,2.3-11.7c0.9-1.4,2-2.7,2.9-4.1c0.3-0.5,0.8-1,0.8-1.5c0-3.3-0.2-6.5-0.3-9.8
			c-0.1-2.1-0.1-4.1-0.3-6.2C10.4,86,9.9,78.8,9.4,71.6C9,66.5,8.5,61.3,7.9,56.1c-1.1-9.7-2.3-19.4-4.8-28.8
			c-0.4-1.5-0.8-2.9-1.2-4.4c-0.7-2.2-0.1-3.3,2.2-4.1c3.2-1.2,6.1-0.4,8.9,1.4c0.8,0.5,1.5,1.1,2.2,1.6c1.1,0.9,1.6,0.8,2.1-0.6
			c1-2.9,2.4-5.6,4.7-7.8c3.4-3.3,6.9-2.9,10.2-0.5c1,0.7,2,1.6,3,2.4c0.9,0.8,1.5,0.7,2-0.4c0.8-1.6,1.5-3.2,2.6-4.6
			C42.4,7,45.6,7,48.6,8.8c2.2,1.3,4.2,3,6.3,4.6c1.3,1,1.6,1,2.2-0.5c0.9-2.2,1.7-4.5,2.7-6.6c2.1-4,5.8-5.1,9.8-3.1
			c2.3,1.2,3.8,3.2,5.1,5.2c0.6,0.9,1.1,1.9,1.6,2.9c0.6,1.1,1.3,1.1,2,0c1.9-3,3.7-6.1,6.5-8.5c2.9-2.4,5.8-2.6,8.8,0
			c2.1,1.8,3.4,4.2,4.4,6.7c0.1,0.3,0.4,0.8,0.6,0.7c0.3,0,0.8-0.3,1-0.5c0.7-1,1.1-2.3,1.9-3.2c1.4-1.5,2.8-3,4.5-4.2
			c1.9-1.3,4-0.6,5.7,0.7c2.1,1.7,3.7,3.7,4.7,6.2c0.3,0.6,0.6,1.2,1,1.8c0.6,1.2,1.1,1.3,2.1,0.4c2-1.7,4-3.5,6.1-5.1
			c3.9-3.1,9-2,11.3,2.5c0.7,1.5,1.2,3.1,1.7,4.6c0.4,1.4,1,1.6,2.1,0.5c1.6-1.6,3.2-3.2,4.8-4.8c1.3-1.2,2.8-1.9,4.5-2.2
			c3.5-0.7,6.4,2.4,7.1,5.3c0.7,2.9,1.1,5.9,1.7,8.8c0.1,0.3,0.3,0.6,0.4,0.9c0.3-0.2,0.7-0.3,1-0.6c1.7-2.1,3.6-3.8,6-5.2
			c2.9-1.6,7.7,0.1,8,4.5c0.2,3.1,0.3,6.2,0,9.2c-0.5,6.5-1.3,13-2,19.5c-0.7,6.3-1.5,12.6-2.3,18.9c-0.7,5.8-1.5,11.5-2,17.3
			c-0.5,6-1.4,12.1-0.4,18.1c0.5,3.1,1.9,6.1,2.7,9.2c1.5,5.5,2.7,11,2.3,16.8c-0.2,2.5-0.8,4.9-2.2,7c-0.7,1-2,1.7-3,2.6
			c-0.4,0.4-0.7,1.1-0.6,1.6c0.6,3.6,1.7,7.1,1.8,10.7c0.2,4-0.5,8-2.5,11.6c-0.6,1-1.3,2-1.8,3.1c-0.3,0.5-0.3,1.1-0.4,1.7
			c0,0.3,0.1,0.6,0.2,0.9c0.3,1.2,0.3,2.7,1.1,3.5c0.7,0.6,2.2,0.4,3.4,0.5c2.4,0.3,4.7,0.9,6.7,2.3c2.2,1.6,3.1,3.9,3.3,6.6
			c0.3,3.5-1,6.7-1.7,10c-0.5,2.5-0.8,5.1-1,7.7c-0.3,2.9-1.2,5.5-3.2,7.7c-2.9,3.2-6.6,5.4-10.1,7.8c-0.2,0.1-0.5,0.3-0.6,0.2
			c-1.6-0.7-1.5,0.4-1.4,1.4c0.3,4.3,0.6,8.6,0.8,12.9c0.1,1.1-0.1,2.4-0.5,3.5c-1.2,2.9-3,5.3-5.2,7.5c-2.3,2.4-4.5,5-6.9,7.3
			c-3.4,3.2-6.9,6.3-10.4,9.4c-1.4,1.2-3,2.3-4.4,3.5c-0.8,0.7-1.3,1.4-1.3,2.6c0.1,4.6-0.2,9.2,0.1,13.7c0.2,2.6-1,3.8-2.9,5
			c-6.4,3.8-13.3,6.2-20.5,7.3c-5.8,0.9-11.6,1.1-17.5,0.8c-8.3-0.5-16.5-1.9-24.5-4.2c-4.7-1.4-9.3-3.2-14-4.8
			c-1.3-0.5-1.8-1.2-1.7-2.6c0.3-4.6,0.3-9.2,0.7-13.8c0.2-1.9-0.7-2.8-2.1-3.5c-3.8-2-7.1-4.6-10.2-7.6
			c-5.2-5.1-10.5-10.1-15.7-15.2c-1-1-1.8-2.1-2.7-3.2c-0.2-0.3-0.3-0.8-0.3-1.2c-0.2-4.7-0.3-9.3-0.6-14c-0.1-2.4-0.5-4.9-0.8-7.3
			C19.8,212.6,19.6,212.3,19.3,211.6z M162,95.7c0.2,0,0.4,0,0.6,0c0-0.4,0-0.7,0-1.1c0.2-4.3,0.4-8.6,0.7-12.8
			c0.4-4.3,1.1-8.7,1.6-13c0.5-3.6,1-7.2,1.4-10.8c0.6-4.7,1.2-9.4,1.8-14.1c0.5-4.6,1-9.2,1.3-13.8c0.2-2.7,0.2-5.4,0.1-8.1
			c-0.1-1.5-0.8-1.8-2-0.9c-1.2,0.9-2.2,1.9-3.2,3c-2.2,2.2-3.9,4.8-6.8,6.2c-0.9,0.4-1.5,0.5-1.7-0.6c-0.5-2.6-1.1-5.1-1.6-7.7
			c-0.5-2.6-0.8-5.3-1.5-7.9c-0.7-2.6-1.9-2.8-4-1.2c-0.1,0.1-0.1,0.1-0.2,0.2c-2.8,2.5-5.4,5.2-7.2,8.5c-0.2,0.3-0.6,0.6-0.9,0.8
			c-1,0.4-2,0.6-3,0.9c-0.8,0.3-1.4,0.2-1.6-0.9c-0.1-0.9-0.3-1.7-0.5-2.6c-0.7-2.7-1.2-5.5-2.1-8.1c-0.8-2.4-2.5-3-4.5-1.4
			c-2.2,1.6-4.4,3.4-6.1,5.6c-1.4,1.9-3,3-5.2,3.6c-1.2,0.3-1.6,0-2-1c-0.9-2.3-1.8-4.7-2.9-6.9c-0.6-1.4-1.5-2.6-2.5-3.8
			c-1.1-1.4-2.1-1.4-3.3,0c-0.7,0.8-1.4,1.8-1.8,2.8c-1,2.4-2,4.8-2.9,7.2c-0.4,1-0.8,1.7-2,1.5c-0.4-0.1-0.7,0-1.1,0
			c-2.5,0-2.3-0.1-3.1-2.4c-1-3-2.1-5.9-3.6-8.7c-1.7-3.1-3.4-3.1-5.6-0.3c-2.4,3.1-4.6,6.4-5.9,10.1c-0.2,0.4-0.5,0.9-0.9,1.2
			c-1,0.6-2,1.1-3.1,1.5c-0.4,0.1-1-0.1-1.3-0.4c-0.3-0.3-0.5-0.9-0.7-1.3c-1.3-2.7-2.4-5.5-3.9-8.1c-0.8-1.3-2-2.4-3.3-3.3
			c-1.3-0.9-2.4-0.5-3.2,0.8c-0.7,1.2-1.2,2.5-1.8,3.7c-1.1,2.6-2.1,5.3-3.1,8c-0.5,1.2-1.3,1.4-2.3,0.7c-1.7-1.1-3.4-2.2-5-3.5
			c-1.6-1.2-3-2.8-4.7-3.9c-2.5-1.6-3.8-1.2-5.1,1.5c-1.1,2.3-2.1,4.7-3,7.1c-0.4,1.2-1,1.3-1.9,0.6c-1.6-1.1-3.2-2.2-4.7-3.3
			c-1.2-0.9-2.2-2-3.4-2.8c-1.5-1.1-3.1-1-4.3,0.5c-2,2.4-3.6,5.2-3.6,8.3c0,1.9-0.6,2.9-2.2,3.6c-0.4,0.2-0.7,0.4-1,0.7
			c-0.6,0.5-1.1,0.4-1.7-0.2c-1.3-1.4-2.7-2.8-4.1-4.1C10.8,23.9,9,23,7.1,22.8c0.5,3.2,0.8,6.3,1.3,9.3c0.9,4.8,2.1,9.5,2.9,14.4
			c0.9,6.1,1.7,12.2,2.3,18.3c0.6,5.6,0.9,11.2,1.2,16.8c0.4,9,0.6,18.1,0.9,27.1c0,0.5,0,1.1,0.2,1.5c0.7,1.2,0.2,1.9-0.7,2.8
			c-5.8,5.4-6.9,11.5-3.2,18.2c1.3,2.3,2.9,4.5,5,6.1c0.2-0.1,0.3-0.1,0.4-0.2c0.3-0.3,0.5-0.7,0.7-1c2.4-3.4,5.3-6.4,8.8-8.8
			c4.1-2.8,8.5-4.8,13.3-5.9c2.7-0.6,5.6-1.3,8.3-1.1c4.7,0.3,9.3,1.4,13.7,3.1c7.8,3,14.2,7.7,18.2,15.2c2.5,4.5,3.8,9.4,4.1,14.5
			c0.3,4.6,0.1,9-1.2,13.4c-0.3,0.9-0.5,1.8-1.1,2.5c-1.8,2.2-3.8,4.2-5.8,6.3c-2.5,2.7-4.7,5.6-5.2,9.4c-0.3,2-0.1,4,0.7,6
			c0.6,1.5,1.7,2.3,3.1,3.2c3.5,2.1,7.4,2.7,11.2,2.9c2.4,0.1,4.8-0.7,7.2-1.1c3.6-0.5,6.9-1.9,9.9-3.9c0.2-0.2,0.5-0.2,0.8-0.3
			c0.1,0.1,0.2,0.3,0.3,0.4c-1.6,1.6-3.3,3.3-4.9,4.9c1.7-1,3.3-2.2,4.6-3.6c3.7-4.1,4.3-8.5,0.8-13.2c-3.8-5.1-7.3-10.5-10.9-15.8
			c-2.2-3.2-2.9-6.9-2.7-10.7c0.2-4.2,1-8.4,2.4-12.4c5.2-14.9,18.6-22.8,32.7-24c4.9-0.4,9.7,1.1,14.3,2.6
			c8.3,2.8,15,7.6,19.4,15.4c0.2,0.4,0.6,0.8,0.9,0.9c2.4,0.7,5.1-0.7,5.8-3c0.5-1.7,0.9-3.5,0.8-5.3c-0.1-5-1.2-9.9-2.7-14.6
			c-1.3-4-2.9-7.9-2.7-12.2c0-1.1-0.3-2.2-0.4-3.4c-0.9,1.1-1.5,1.5-2.5,1.2c-1.1-0.3-1.4-1.1-1.3-2.1c0.1-1.7,0-3.4,0.1-5.1
			c0.3-3.9,0.6-7.7,1-11.6c0.4-4.7,0.9-9.4,1.3-14.2c0.2-3.2,0.4-6.5,0.2-9.7c-0.2-5.1-0.2-10.2,0.9-15.3c1-4.6,2.3-9.1,2.3-13.9
			c0-1.2,0.7-1.7,1.9-1.7c1.3,0,2.1,0.6,1.9,2.1c-0.4,3.7-1,7.5-1.7,11.2c-0.3,2-1.1,4-1.3,6.1c-0.3,3.7-0.2,7.4-0.3,11.2
			c-0.1,4.5-0.2,8.9-0.3,13.4c0,0.3-0.1,0.5-0.1,0.8c-0.3,2.5-0.7,4.9-0.9,7.4c-0.3,2.8-0.4,5.6-0.6,8.4c0,0.2-0.1,0.4-0.1,0.7
			C162.3,89.3,162.2,92.5,162,95.7z M133.9,254.8c-0.1-0.1-0.2-0.2-0.3-0.3c-2,1.5-4.4,2.6-5.8,4.5c-1.8,2.4-2.8,5.4-2.4,8.6
			c0.3,2.6,0.8,5.2,1.3,7.8c0.2,1.1,0.2,2-1.1,2.3c-1.2,0.3-2.2-0.5-2.4-1.8c-0.2-1.2-0.4-2.5-0.7-3.7c-0.9-3.7-1-7.4,0.2-11
			c0.5-1.4,1-3,2.1-3.8c1-0.7,1.9-1.4,2.6-2.5c0.3-0.5,0.9-1,1.4-1.3c2.1-1.5,4.2-2.8,6.2-4.4c2.5-2,5-4,7-6.4
			c3.2-3.8,5.8-8.1,9.5-11.5c0.4-0.3,0.5-1.1,0.4-1.7c-0.4-2.8-1.1-5.5-1.2-8.3c-0.3-7.7,0.4-15.2,2.8-22.6c0.8-2.6,2.1-5,3.3-7.4
			c0.8-1.5,2.5-1.7,3.3-0.4c0.7,1.2,1.6,1.3,2.7,1.3c1.1-0.1,2.2,0,3.3,0c1.4,0,1.5,0.2,0.9,1.5c-1.4,3.8-2.8,7.7-4.2,11.6
			c-0.5,1.4-0.7,3-1,4.5c0.2,0.1,0.4,0.2,0.5,0.4c2.3-2,4.8-3.8,7-6c0.9-1,1.4-2.6,1.6-4c0.6-3.3,1-6.6,1.5-10c0.4-2.5,1-5,1.2-7.5
			c0.2-2.4-1.2-3.8-3.5-4.4c-2.4-0.7-4.8-0.4-7.1,0.1c-1.1,0.2-1.7-0.1-1.9-1.3c-0.3-1.7-0.8-3.3-1.4-5.4c-0.5,0.8-0.8,1.2-1.1,1.7
			c-2.3,3.6-5.1,6.7-8.5,9.2c-6.1,4.4-13,6.1-20.5,5.8c-5.2-0.2-10.2-1.2-15-3c-1.5-0.6-3-1.3-4.6-2c0,0.5,0,0.8,0,1.1
			c0.5,3.7-0.7,6.9-3.1,9.7c-4.6,5.4-10.6,8.3-17.6,8.7c-7,0.5-12.9-2-17.5-7.4c-2-2.4-3-5.1-3.4-8.4c-9.6,5.7-19.6,5.7-29.8,2.9
			c-10.4-2.8-18.2-9-23.2-18.6c-0.1,0.1-0.2,0.1-0.3,0.2c2,5.1,4,10.2,5.9,15.3c-0.1,0.1-0.2,0.2-0.4,0.2c-0.3-0.2-0.7-0.4-1-0.6
			c-1.5-1.1-3-2.3-4.5-3.4c-3.1-2.3-7.4-1-8.7,2.7c-0.8,2.4-1,4.8-0.6,7.4c0.8,5.5,3.3,10,7.8,13.3c1.2,0.9,2.7,1.4,4.1,2
			c0.1-0.1,0.2-0.3,0.4-0.4c-0.5-2.9-1.5-5.7-2.5-8.5c-1.1-3-3.7-4.7-5.5-7.3c1.8-0.2,3.6,0,5.3-0.3c2.4-0.3,4,0.7,5.1,2.6
			c0.1,0.2,0.3,0.5,0.5,0.7c0.7,0.9,1.1,1.8-0.3,2.4c2.4,6.3,3.6,12.7,4.2,19.2c0.3,4.3,0.5,8.7,0.8,13c0.1,1.4,0.1,3.2,0.9,4.1
			c5.1,5.4,10.2,10.7,15.6,15.7c4,3.8,8.3,7.3,13.7,9.2c0.9,0.3,1,1,0.9,1.8c-0.2,5.2-0.5,10.3-0.7,15.5c0,0.9,0.2,1.5,1.1,1.8
			c1.6,0.5,3.1,1.1,4.7,1.7c9.6,3.2,19.4,5.3,29.5,6c5.6,0.4,11.1,0.1,16.7-0.8c6.3-1,12.2-3,17.7-6c1.2-0.7,1.7-1.4,1.7-2.8
			c-0.1-4.2,0.1-8.5-0.2-12.7c-0.1-2.5,0.7-4.3,2.8-5.6C131.6,256.9,132.7,255.7,133.9,254.8z M162.5,153.1c0-0.6,0-1.3,0-1.9
			c-0.5-10.3-4.3-18.9-12.9-25c-5.9-4.1-12.6-6-19.6-7c-4-0.6-7.8,0.4-11.6,1.5c-16.7,5.2-24.4,18.4-24.7,34c0,2.1,0.4,4.5,1.5,6.2
			c3,5,6.4,9.7,9.7,14.5c1.3,1.9,2.5,3.7,4.6,4.9c6.7,4.1,14.1,5.9,21.9,5.9c6.3,0.1,12.2-1.5,17.3-5.3
			C157.7,174,162.4,164.6,162.5,153.1z M48.8,189.6c8.4,0,12.9-1.1,17.7-3.8c1.5-0.8,2.9-1.7,3.1-3.6c0.1-0.6,0.4-1.1,0.6-1.7
			c1.7-4,4.5-7.2,8-9.7c2.2-1.6,3-3.6,3.6-6c1.4-5.7,1.2-11.4,0-17.1c-1.6-7.1-5.2-12.9-11-17.4c-3.8-2.9-8.1-4.8-12.6-6.1
			c-5.6-1.6-11.3-2.5-17.2-0.9c-12,3.3-20.9,10-25,22.1c-1.6,4.7-2.8,9.6-1.9,14.6c1.5,8.4,5.3,15.5,11.8,21
			C33.1,187.1,41.7,189.3,48.8,189.6z M158.1,196.8c-2.2,5.4-3.1,11.1-3.7,16.9c-0.5,5.4,0.5,15.5,2.1,16.9c-0.3-2.5-0.6-5-0.7-7.4
			c-0.4-8.1,0.5-16.1,3.2-23.8C159.4,198.1,159.2,197.3,158.1,196.8z M156,232.2c-0.1-0.1-0.2-0.2-0.4-0.3
			c-3.2,3.7-6.4,7.4-9.6,11.1c0.1,0.1,0.3,0.2,0.4,0.4C150.1,240,153.6,236.6,156,232.2z"/>
		<path class="st0" d="M162.5,153.1c-0.1,11.5-4.8,20.9-13.9,27.9c-5.1,3.9-11,5.4-17.3,5.3c-7.8-0.1-15.1-1.9-21.9-5.9
			c-2-1.2-3.3-3.1-4.6-4.9c-3.3-4.8-6.7-9.5-9.7-14.5c-1.1-1.8-1.5-4.1-1.5-6.2c0.3-15.6,8-28.8,24.7-34c3.8-1.2,7.6-2.1,11.6-1.5
			c7,1,13.7,2.9,19.6,7c8.6,6.1,12.5,14.6,12.9,25C162.5,151.8,162.5,152.4,162.5,153.1z M128,159.1c2.7,0,5-2,5-4.6
			c0-2.5-2.3-4.7-5-4.7c-2.6,0-4.8,2.1-4.9,4.6C123.1,157,125.3,159.1,128,159.1z"/>
		<path class="st0" d="M48.8,189.6c-7.1-0.2-15.7-2.5-22.9-8.6c-6.6-5.5-10.4-12.6-11.8-21c-0.9-5.1,0.3-9.9,1.9-14.6
			c4.1-12.1,13-18.7,25-22.1c5.9-1.6,11.5-0.7,17.2,0.9c4.6,1.3,8.8,3.2,12.6,6.1c5.8,4.4,9.4,10.3,11,17.4c1.3,5.7,1.4,11.4,0,17.1
			c-0.6,2.3-1.4,4.4-3.6,6c-3.5,2.5-6.3,5.7-8,9.7c-0.2,0.5-0.6,1.1-0.6,1.7c-0.2,1.9-1.6,2.8-3.1,3.6
			C61.6,188.5,57.2,189.6,48.8,189.6z M53,156c0-2.7-2.1-4.8-4.8-4.8c-2.7,0-4.9,2.1-4.9,4.7c0,2.7,2.1,4.6,4.9,4.6
			C51,160.6,53,158.6,53,156z"/>
		<path d="M162.1,123.6c-0.2-3.7-1.5-7-3.3-10.2c-0.4-0.8-0.9-1.5-1.2-2.3c-0.5-1.1,0-1.9,0.9-2.5c0.9-0.5,1.8-0.1,2.3,0.7
			c2.2,3.4,3.7,7.1,4.6,11.2c0.9,3.7,0.2,7.1-1.2,10.5c-0.3,0.7-0.8,1.4-1.4,1.8c-1,0.7-2.5,0.2-2.8-0.8c-1-3.5-3.7-5.4-6.7-7
			c-1.5-0.9-3.1-1.7-4.6-2.6c-1.1-0.6-1-1.6-0.6-2.5c0.4-0.9,1.3-1.2,2.3-0.7c3.4,1.7,6.8,3.3,9.6,5.9c0.4,0.4,1,0.6,1.6,0.9
			c0.1-0.6,0.3-1.2,0.4-1.8C162.2,124,162.1,123.8,162.1,123.6z"/>
		<path d="M90.1,237.3c-10.2-0.3-19.5-1.1-28.7-3.1c-6.9-1.5-13.7-3.5-20.3-6.2c-0.6-0.3-2-0.2-1.5-1.6c0.5-1.4,0.8-1.5,2.2-0.9
			c5.9,2.4,11.9,4.3,18.1,5.7c12.4,2.9,24.9,3.8,37.5,3c5.1-0.3,10.2-1.1,15.2-1.9c8.4-1.4,16.6-3.9,24.5-7c0.9-0.4,1.4-0.2,1.8,0.8
			c0.4,0.9,0.2,1.4-0.8,1.8c-5.5,1.7-10.9,3.6-16.4,5.3c-6.5,1.9-13.2,2.9-20,3.6C97.7,237,93.5,237.1,90.1,237.3z"/>
		<path d="M157.1,178.3c0.7,0.3,1.3,0.3,1.6,0.6c1.4,1.8,3.5,2.1,5.5,2.6c3,0.9,4.7,3.1,5.7,5.9c0.4,1,0.1,1.8-0.9,2.2
			c-1,0.4-2.1,0.4-2.5-0.7c-1.2-2.8-3.5-3.9-6.2-4.5c-1.9-0.4-3.4-1.5-4.4-3.1c-0.4-0.5-0.5-1.4-0.3-2
			C155.8,178.9,156.6,178.6,157.1,178.3z"/>
		<path d="M142.5,228.4c-0.3,0.8-0.6,2.2-1.2,3.5c-0.1,0.3-1.1,0.7-1.2,0.6c-0.5-0.4-1.2-1.2-1.1-1.6c1.6-3.8,0-6.9-2-9.9
			c-0.4-0.6-0.8-1.1-1.3-1.6c-0.8-0.8-0.5-1.4,0.2-2.1c0.8-0.8,1.3-0.3,1.8,0.3C140.3,220.6,142.1,223.9,142.5,228.4z"/>
		<path d="M36.3,228.5c0.3-4.8,2.3-8.3,5.1-11.4c0.6-0.7,1-0.1,1.5,0.3c0.6,0.6,0.8,1,0.2,1.9c-1.3,2-2.6,4-3.6,6.1
			c-0.8,1.6-0.7,3.3,0.1,4.9c0.6,1.2,0,1.7-0.9,2.2c-1,0.5-1.3-0.4-1.5-1C36.7,230.4,36.5,229.2,36.3,228.5z"/>
		<path d="M128,159.1c-2.8,0-4.9-2.2-4.9-4.8c0.1-2.5,2.3-4.6,4.9-4.6c2.7,0,5,2.2,5,4.7C133,157.1,130.8,159.1,128,159.1z"/>
		<path d="M53,156c0,2.6-2,4.6-4.8,4.6c-2.9,0-4.9-1.9-4.9-4.6c0-2.6,2.2-4.8,4.9-4.7C50.9,151.2,53,153.3,53,156z"/>
	</g>
</g>
<path class="st0" d="M103.1,151.7H74.7c-1.9,0-3.4-3.5-3.4-5.4v0c0-1.9,1.5-3.4,3.4-3.4h28.4c1.9,0,3.4,1.5,3.4,3.4v0
	C106.5,148.2,105,151.7,103.1,151.7z"/>
</svg>
