<?xml version="1.0" encoding="utf-8"?>
<!-- Generator: Adobe Illustrator 21.0.0, SVG Export Plug-In . SVG Version: 6.00 Build 0)  -->
<svg version="1.1" id="Layer_1" xmlns="http://www.w3.org/2000/svg" xmlns:xlink="http://www.w3.org/1999/xlink" x="0px" y="0px"
	 viewBox="0 0 400 400" style="enable-background:new 0 0 400 400;" xml:space="preserve">
<style type="text/css">
	.st0{fill:none;}
</style>
<path class="st0" d="M234.3,196.2c-0.6-6.2-10.4-43.4-10.8-43.3c-0.4,0.1,7.5,37.4,8,43.4c0.4,4.5,0.2,18.9-4.9,30.6
	C220.5,240.8,235,202.9,234.3,196.2z"/>
<path class="st0" d="M165.9,62.2c0.1,0,9-4.8,19-4.8c10.3,0,19.7,9.5,19.7,16.9c0,7.6-0.7,8.7-0.7,8.8c0,0.3,1.7-0.5,1.7-8.3
	c0-4-2.8-8.8-6.6-12.2c-4-3.6-9.2-6.5-14.1-6.5c-10.4,0-19.5,5.8-19.6,5.9c-0.3,0.1-0.4,0.5-0.2,0.7
	C165.3,62.8,165.6,62.4,165.9,62.2z"/>
<path class="st0" d="M185.2,67.1c-6.1,0-11,4.4-11.1,9.6c-0.1,5.5,7.6,7.7,11.4,7.7c6.4,0,10-5,10-8.8
	C195.5,71.8,193.6,67.1,185.2,67.1z M185,82.4c-3.9,0-7.1-2.9-7.1-6.5c-0.1-6.6,8-6.7,8.1-6.4c0.2,0.5-1.9,2.1-3.1,2.7
	c-1.4,0.7,1,2.1,2,3s1.2,5.4,3.3,2.5c1.4-1.9,2.3-3.5,2.8-4.5c0.1-0.2,0.4-0.2,0.5,0c0.4,0.8,0.7,1.7,0.7,2.7
	C192.1,79.5,189,82.4,185,82.4z"/>
<path class="st0" d="M185.6,328.1c0,1.4,0.6,3.5,1.5,6c0.7-2.8,1.4-5.4,2.1-7.8c-1.2-0.1-2.4-0.2-3.5-0.3
	C185.6,326.7,185.6,327.5,185.6,328.1z"/>
<path d="M191,73.2c-0.5,1-1.4,2.7-2.8,4.5c-2.1,2.9-2.3-1.6-3.3-2.5c-0.9-0.9-3.3-2.3-2-3c1.2-0.6,3.3-2.2,3.1-2.7
	c-0.1-0.3-8.2-0.1-8.1,6.4c0,3.6,3.2,6.5,7.1,6.5c3.9,0,7.1-2.9,7.1-6.5c0-1-0.2-1.9-0.7-2.7C191.4,73,191.1,73,191,73.2z"/>
<path d="M196.8,96.6c-3.7,4.9-3.1,22.7,0.7,24.4s21.2,2.7,30-1.5s14.3-14.3,14.1-20.5C241.5,91,200.2,92.1,196.8,96.6z"/>
<path d="M285.6,92.1c-9-1.2-15-0.1-16.8,0.3c-5.4,1.1-8.2,3.1-9.3,5.6c-0.9,2.1,1.7,16.6,8.8,18.9c7.1,2.3,22.5-3.2,23.8-13.2
	C292.9,97.9,291.6,92.9,285.6,92.1z"/>
<path d="M187.2,90.1c0.5-0.1,8.4-0.3,10.5-0.4c10.1-0.7,29.5-1.6,44-0.8c3.7,0.2,8.9,0.5,10.5,0.9c5.6,1.3,19.1-2.4,19.1-2.4
	c1.5-2.6,0-10.9-0.5-16.4c-0.7-7.5-16.5-29.6-40.1-37.7c-16.2-5.6-36.9-1.3-48.2,1.6c-24.4,6.3-34.9,22.9-47.7,32.8
	c-0.2,0.1-0.3,0.2-0.5,0.4c3.3,0,11.9,0.9,17.6,4.2C164.1,79.3,182.9,91.2,187.2,90.1z"/>
<path d="M268.5,121.5c-4-2.5-7.9-4.2-10-8.1c-2.2-4.2-1.9-7.4-3.5-12.6c-0.4-1.4-1.6-3.6-5.3-3.6c-3.3,0-4.2,3.1-4.3,4.3
	c-0.1,1.3-2.2,10.5-5.8,14.6c-5.2,5.9-12.6,12.3-39.2,11.6c-15.4-0.4-13-20.5-16.7-28c-1.2-2.4-9.9-6.2-10.3-6.4
	c-2.8-1.2-6.3-0.5-8.5-2c-8.6-6-21.8-23.6-40.4-14c0.4,2.1,1.1,4.2,1.1,4.2c-5.1,3.3-7.8,16.4-11.6,35.5
	c-5.5,27.5,16.8,56.6,13.8,64.5c0,0-9.7,8.1-8.6,16.6c0.7,5.6,7.4,12.5,12.8,17.3c-2.6-2.2-5.6-4.6-7.9-6.5
	c-1.9-1.6-4.3-0.9-5.2-0.7c-1.9,0.6-4.1,3-5.3,5.8c-0.8,1.8-0.2,3.9,1.4,5c4.2,3,12.2,8.6,12.7,9.2c0.3,0.4-10.7-8.2-13.2-8.4
	c-3-0.3-3.8,8.4-1.8,9.9c1.8,1.4,7.2,5,7.2,5s-5-3-7.6-3c-0.9,0-1.5,2.2-1.5,2.5c-1.1,16.3,9,31.4,18.5,35
	c10.5,4,23.6,28.6,30.5,38.4c4.2,5.9,8,13.2,18.6,16.7c1,2.7,3.8,10.3,7.4,15.9c-2.2,10.1-3.7,20.2-1.9,25.2c0,0,2.3-8.1,5-17
	c3.3,10.5,6.6,25.2,6.6,22.1c0,0-2-17-3.8-23.6c-0.3-1.2-0.8-2.5-1.2-3.8c2-6.8,3.9-13.4,4.8-16.5c0-0.1,0.1-0.2,0.1-0.3
	c4.3-0.1,9.3-0.7,15-1.6c37.7-6.5,34.8-46,34.1-81.9c0-0.8-0.1-3.8-0.1-4.5c-7.3,4.3-24.4,8.5-24.4,8.5s7.5-10.8,10-18
	c3.7-10.7,2.1-28,1.7-32.4c-0.6-6-8.5-43.3-8-43.4c0.4-0.1,10.5,34,11.3,40.2c0.5,4.1,3.2,20.4-0.1,31.8c-3.4,11.5-10,18.5-10,18.5
	s16.2-6.2,21.5-9.8c7.4-5,25.8-16.5,21.4-44.5C263.6,162.3,268.5,121.5,268.5,121.5z M187.1,334.1c-0.9-2.5-1.5-4.6-1.5-6
	c0-0.6,0-1.4,0-2.2c1.1,0.1,2.3,0.2,3.5,0.3C188.5,328.7,187.8,331.3,187.1,334.1z M220.9,206.6c-8.8-4.7-19.9-10.9-26-20.7
	c-6.4-10.3-10-35.3-3-38.5c0.8-0.4,1.2-0.6,1.5-1.5c0.6-1.5-3.5-3.8-6.4-5.5c-11.9-6.9-20.3-16.3-33.6-32.7
	c-5.5-6.7-11-9.2-15.4-8.4c-5.5,1-11.9,8.9-16.2,21.6c-5.6,16.8,6.5,42.9,13.2,57.9c2.2,4.9,11.1,17.5,18,23.8
	c15.2,13.7,39.2,34.5,43.8,54.9c2.2,9.6-1.1,22.7-5.4,29.3c-5.5,8.5-13.5,8.8-16.6,8.6c3.1-0.3,9.5-2.3,15.9-13.1
	c3.6-6,5.7-15.5,3.7-24.2c-4.4-19.4-28.1-40.8-43-54.3c-9.4-8.5-17-20.3-19.1-24.9c-6.9-15.4-18.6-41.2-12.6-59.2
	c4.7-14.2,10.6-22,17.5-23.3c5.6-1,11.7,2.4,17.9,10.1c14.8,18.2,22.7,26.8,33.3,33c10.9,6.4,13.5,10.8,13.5,10.8s15.2,27,18.7,50.8
	C221,203.1,220.9,204.9,220.9,206.6z"/>
</svg>
