<?xml version="1.0" encoding="utf-8"?>
<!-- Generator: Adobe Illustrator 15.1.0, SVG Export Plug-In . SVG Version: 6.00 Build 0)  -->
<!DOCTYPE svg PUBLIC "-//W3C//DTD SVG 1.1//EN" "http://www.w3.org/Graphics/SVG/1.1/DTD/svg11.dtd">
<svg version="1.1" id="New_Symbol" xmlns="http://www.w3.org/2000/svg" xmlns:xlink="http://www.w3.org/1999/xlink" x="0px" y="0px"
	 width="2.69px" height="7.014px" viewBox="0 0 2.69 7.014" enable-background="new 0 0 2.69 7.014" xml:space="preserve">
<g>
	<path fill-rule="evenodd" clip-rule="evenodd" d="M0.772,0.647c0.033,0.22,0.207,0.424,0.434,0.473
		c0.299,0.065,0.682-0.128,0.691-0.543c0.007-0.34-0.277-0.609-0.613-0.574C0.953,0.037,0.722,0.32,0.772,0.647z"/>
	<path fill-rule="evenodd" clip-rule="evenodd" d="M0.135,1.677c-0.193,0.306-0.124,0.81-0.124,1.357c0,0.145,0,0.326,0,0.504
		c0,0.163-0.027,0.389,0.031,0.48c0.05,0.08,0.139,0.107,0.232,0.093c0.225-0.034,0.17-0.309,0.17-0.565c0-0.327,0-0.587,0-0.946
		c0-0.147-0.03-0.385,0.047-0.427c0.031-0.017,0.098-0.029,0.14,0c0.042,0.031,0.03,0.158,0.03,0.256c0,1.331,0,2.526,0,3.823
		c0,0.203-0.026,0.439,0.016,0.558c0.094,0.259,0.467,0.266,0.574,0.046C1.324,6.71,1.283,6.378,1.283,6.144
		c0-0.627,0-1.234,0-1.869c0-0.156-0.017-0.287,0.101-0.279c0.1,0.008,0.086,0.14,0.086,0.286c0,0.666,0,1.227,0,1.87
		c0,0.378-0.083,0.806,0.24,0.853c0.405,0.058,0.365-0.344,0.365-0.722c0-1.332,0-2.572,0-3.908c0-0.115-0.018-0.214,0.085-0.217
		c0.094-0.002,0.094,0.05,0.093,0.155c-0.004,0.492,0,0.875,0,1.357c0,0.187-0.006,0.368,0.124,0.418
		c0.127,0.05,0.237-0.008,0.28-0.085c0.055-0.101,0.023-0.31,0.023-0.457c0-0.172,0-0.338,0-0.481c0-0.326,0.026-0.653,0-0.961
		C2.648,1.731,2.405,1.459,2.081,1.352C1.908,1.294,1.689,1.305,1.453,1.305c-0.227,0-0.502-0.009-0.689,0.008
		C0.497,1.337,0.26,1.482,0.135,1.677z"/>
</g>
</svg>
