<?xml version="1.0" encoding="utf-8"?>
<!-- Generator: Adobe Illustrator 15.1.0, SVG Export Plug-In . SVG Version: 6.00 Build 0)  -->
<!DOCTYPE svg PUBLIC "-//W3C//DTD SVG 1.1//EN" "http://www.w3.org/Graphics/SVG/1.1/DTD/svg11.dtd">
<svg version="1.1" id="Layer_1" xmlns="http://www.w3.org/2000/svg" xmlns:xlink="http://www.w3.org/1999/xlink" x="0px" y="0px"
	 width="332.777px" height="310.891px" viewBox="0 0 332.777 310.891" enable-background="new 0 0 332.777 310.891"
	 xml:space="preserve">
<g>
	<path fill="#1C1B1A" d="M204.374,301.55c-13.433,0-26.673-3.412-38.397-9.882c-11.727,6.47-24.967,9.882-38.396,9.882
		c-43.44,0-78.864-34.982-79.577-78.255C24.521,208.868,10,183.021,10,155.45c0-27.577,14.521-53.426,38.004-67.853
		c0.713-43.271,36.137-78.255,79.577-78.255c13.43,0,26.67,3.413,38.396,9.885c11.724-6.471,24.964-9.884,38.397-9.884
		c43.223,0,78.582,34.731,79.562,77.75c24,14.338,38.841,40.38,38.841,68.357c0,27.972-14.842,54.012-38.842,68.349
		C282.956,266.82,247.597,301.55,204.374,301.55z M165.977,285.234l1.398,0.81c11.217,6.491,24.011,9.923,36.999,9.923
		c40.688,0,73.884-33.102,73.999-73.79l0.004-1.616l1.404-0.802c23.076-13.159,37.413-37.802,37.413-64.308
		c0-26.511-14.336-51.155-37.412-64.316l-1.404-0.801l-0.005-1.617c-0.114-40.687-33.31-73.788-73.998-73.788
		c-12.99,0-25.783,3.431-36.999,9.922l-1.398,0.81l-1.399-0.81c-11.218-6.492-24.011-9.923-36.998-9.923
		c-40.805,0-74.003,33.196-74.003,73.999c0.005,0.082,0.008,0.168,0.008,0.253v1.6l-1.379,0.809
		c-22.589,13.252-36.622,37.724-36.622,63.862c0,26.133,14.032,50.601,36.621,63.856l1.379,0.81v1.599
		c0,0.089-0.003,0.176-0.008,0.265c0,40.791,33.197,73.987,74.002,73.987c12.986,0,25.779-3.432,36.998-9.923L165.977,285.234z"/>
</g>
</svg>
